<?xml version="1.0" standalone="no"?>
<!DOCTYPE svg PUBLIC "-//W3C//DTD SVG 20010904//EN"
 "http://www.w3.org/TR/2001/REC-SVG-20010904/DTD/svg10.dtd">
<svg version="1.0" xmlns="http://www.w3.org/2000/svg"
 width="272.000000pt" height="78.000000pt" viewBox="0 0 272.000000 78.000000"
 preserveAspectRatio="xMidYMid meet">

<g transform="translate(0.000000,78.000000) scale(0.100000,-0.100000)"
fill="#ffffff" stroke="none">
<path d="M22 757 c-25 -26 -31 -104 -9 -112 6 -2 39 -5 72 -7 l60 -3 5 -283 5
-284 33 -29 32 -29 236 0 c204 0 240 2 265 17 34 20 52 59 47 104 -3 34 -3 34
-60 37 l-58 3 0 119 0 118 115 108 c65 61 115 116 115 126 0 10 -10 28 -21 39
-18 18 -29 21 -70 16 -27 -3 -69 -15 -94 -26 l-45 -20 0 30 c0 34 -15 68 -39
86 -12 9 -91 12 -292 13 -275 0 -276 0 -297 -23z m481 -5 c100 -8 107 -13 107
-83 0 -42 -3 -48 -44 -79 -49 -36 -62 -60 -72 -135 -4 -28 -17 -64 -30 -81
-13 -17 -24 -36 -24 -42 0 -23 26 -11 49 23 21 32 28 35 72 35 l49 0 0 -109 0
-110 -47 -3 c-27 -2 -48 -7 -48 -13 0 -6 46 -11 113 -13 61 -1 112 -6 112 -11
0 -27 -25 -70 -46 -80 -16 -7 -90 -11 -200 -11 -162 0 -175 1 -170 18 2 9 7
31 11 49 5 27 11 32 38 35 45 4 40 22 -8 26 -45 4 -65 -14 -65 -60 0 -28 -30
-68 -51 -68 -6 0 -24 13 -40 29 l-29 29 0 302 c0 191 -4 308 -10 321 -6 11 -8
24 -5 29 7 11 201 12 338 2z m-374 -28 c35 -45 28 -54 -39 -54 -55 0 -60 2
-60 22 0 29 28 58 56 58 12 0 32 -12 43 -26z m705 -67 c16 -12 7 -23 -98 -121
-93 -87 -122 -108 -153 -113 l-38 -6 34 37 c19 20 70 62 113 93 51 37 75 60
68 67 -10 10 -106 -51 -187 -121 l-43 -36 0 26 c0 51 93 128 201 167 64 23 80
24 103 7z"/>
<path d="M260 600 c0 -6 42 -10 105 -10 63 0 105 4 105 10 0 6 -42 10 -105 10
-63 0 -105 -4 -105 -10z"/>
<path d="M260 485 c0 -12 16 -15 80 -15 64 0 80 3 80 15 0 12 -16 15 -80 15
-64 0 -80 -3 -80 -15z"/>
<path d="M273 383 c-32 -12 -7 -23 52 -23 62 0 84 11 49 24 -18 7 -83 7 -101
-1z"/>
<path d="M260 255 c0 -12 18 -15 105 -15 87 0 105 3 105 15 0 12 -18 15 -105
15 -87 0 -105 -3 -105 -15z"/>
<path d="M450 155 c0 -8 5 -15 10 -15 6 0 10 7 10 15 0 8 -4 15 -10 15 -5 0
-10 -7 -10 -15z"/>
<path d="M1067 433 c-4 -3 -7 -80 -7 -170 0 -155 1 -163 20 -163 17 0 19 8 22
68 l3 67 79 6 c94 6 116 24 116 94 0 56 -24 85 -80 96 -54 10 -144 12 -153 2z
m142 -39 c38 -8 55 -35 46 -74 -7 -33 -44 -50 -111 -50 l-44 0 0 65 0 65 39 0
c21 0 53 -3 70 -6z"/>
<path d="M1388 334 c-16 -8 -28 -19 -28 -24 0 -18 20 -21 42 -6 31 22 75 20
88 -3 19 -37 12 -47 -49 -59 -32 -7 -65 -20 -75 -30 -21 -25 -20 -75 2 -95 21
-19 83 -22 113 -7 13 7 19 7 19 0 0 -5 9 -10 20 -10 19 0 20 7 20 100 0 94 -2
103 -25 125 -28 29 -84 33 -127 9z m112 -148 c0 -43 -19 -58 -67 -54 -35 3
-38 5 -38 33 0 25 5 32 35 42 60 20 70 17 70 -21z"/>
<path d="M1610 180 c0 -163 1 -170 20 -170 18 0 20 7 20 55 0 52 1 55 19 45
25 -13 77 -13 100 0 30 16 54 88 46 139 -12 81 -85 126 -142 86 -19 -13 -22
-13 -27 0 -3 8 -12 15 -21 15 -13 0 -15 -24 -15 -170z m140 120 c25 -25 28
-114 4 -148 -18 -26 -60 -29 -86 -5 -23 21 -25 118 -2 151 19 28 57 29 84 2z"/>
<path d="M1857 343 c-2 -4 15 -62 39 -127 44 -119 44 -120 26 -150 -10 -17
-27 -31 -37 -31 -24 0 -32 -23 -10 -31 33 -13 66 14 94 79 41 93 96 255 89
263 -18 17 -39 -12 -63 -88 -14 -46 -28 -90 -32 -98 -3 -9 -19 28 -37 85 -21
67 -37 101 -48 103 -9 2 -18 -1 -21 -5z"/>
<path d="M2104 337 c-2 -7 -3 -62 -2 -123 3 -94 5 -109 21 -112 15 -3 17 5 18
65 0 95 16 136 57 148 17 5 32 15 32 22 0 21 -41 15 -67 -9 l-23 -21 0 21 c0
24 -27 31 -36 9z"/>
<path d="M2277 344 c-4 -4 -7 -47 -7 -96 0 -85 9 -124 34 -140 17 -11 75 -9
98 3 15 8 22 8 28 -1 5 -7 15 -10 24 -7 14 6 16 23 14 124 -3 99 -6 118 -19
121 -14 2 -17 -12 -21 -92 -3 -55 -11 -102 -18 -111 -15 -18 -76 -20 -87 -2
-4 6 -10 54 -13 106 -5 86 -14 114 -33 95z"/>
<path d="M2565 338 c-27 -15 -35 -28 -35 -60 0 -27 39 -68 66 -68 7 0 25 -5
39 -12 20 -9 25 -18 23 -37 -3 -24 -7 -26 -48 -25 -25 1 -54 3 -64 5 -10 2
-21 -1 -23 -7 -6 -18 50 -35 102 -32 39 2 52 8 68 30 34 46 16 78 -61 107 -64
25 -78 46 -47 71 14 12 31 11 83 -5 16 -6 22 -3 22 8 0 34 -82 50 -125 25z"/>
</g>
</svg>
