<svg id="svg" version="1.1" xmlns="http://www.w3.org/2000/svg" xmlns:xlink="http://www.w3.org/1999/xlink" width="400" height="400" viewBox="0, 0, 400,400"><g id="svgg"><path id="path0" d="M33.400 13.200 C 33.264 13.420,32.443 13.600,31.576 13.600 C 30.709 13.600,30.000 13.780,30.000 14.000 C 30.000 14.220,29.460 14.400,28.800 14.400 C 28.140 14.400,27.600 14.580,27.600 14.800 C 27.600 15.020,27.150 15.200,26.600 15.200 C 26.050 15.200,25.600 15.380,25.600 15.600 C 25.600 15.820,25.240 16.000,24.800 16.000 C 24.360 16.000,24.000 16.180,24.000 16.400 C 24.000 16.620,23.640 16.800,23.200 16.800 C 22.760 16.800,22.400 16.980,22.400 17.200 C 22.400 17.420,22.040 17.600,21.600 17.600 C 21.160 17.600,20.800 17.780,20.800 18.000 C 20.800 18.220,20.440 18.400,20.000 18.400 C 19.560 18.400,19.200 18.550,19.200 18.732 C 19.200 18.915,18.705 19.320,18.100 19.632 C 17.495 19.945,16.339 20.875,15.531 21.700 C 14.724 22.525,13.904 23.200,13.710 23.200 C 13.185 23.200,10.760 25.573,9.417 27.400 C 8.770 28.280,7.961 29.270,7.618 29.600 C 7.275 29.930,6.740 30.695,6.430 31.300 C 6.119 31.905,5.715 32.400,5.532 32.400 C 5.350 32.400,5.200 32.760,5.200 33.200 C 5.200 33.640,5.020 34.000,4.800 34.000 C 4.580 34.000,4.400 34.360,4.400 34.800 C 4.400 35.240,4.220 35.600,4.000 35.600 C 3.780 35.600,3.600 35.960,3.600 36.400 C 3.600 36.840,3.420 37.200,3.200 37.200 C 2.980 37.200,2.800 37.560,2.800 38.000 C 2.800 38.440,2.620 38.800,2.400 38.800 C 2.180 38.800,2.000 39.340,2.000 40.000 C 2.000 40.660,1.820 41.200,1.600 41.200 C 1.380 41.200,1.200 41.614,1.200 42.120 C 1.200 42.626,0.975 43.265,0.700 43.540 C 0.317 43.922,0.200 47.631,0.200 59.329 L 0.200 74.619 1.100 75.585 C 1.595 76.116,2.000 76.787,2.000 77.075 C 2.000 77.364,2.150 77.600,2.332 77.600 C 2.515 77.600,2.920 78.095,3.232 78.700 C 3.944 80.079,5.414 81.600,6.035 81.600 C 6.294 81.600,6.797 81.915,7.153 82.300 C 8.080 83.303,11.111 84.800,12.214 84.800 C 12.730 84.800,13.264 84.980,13.400 85.200 C 13.561 85.460,23.071 85.600,40.624 85.600 L 67.600 85.600 67.600 210.376 C 67.600 293.129,67.735 335.236,68.000 335.400 C 68.221 335.537,68.400 337.337,68.400 339.424 C 68.400 341.675,68.562 343.200,68.800 343.200 C 69.020 343.200,69.200 344.100,69.200 345.200 C 69.200 346.300,69.380 347.200,69.600 347.200 C 69.820 347.200,70.000 347.830,70.000 348.600 C 70.000 349.370,70.180 350.000,70.400 350.000 C 70.620 350.000,70.800 350.439,70.800 350.976 C 70.800 351.513,70.980 352.064,71.200 352.200 C 71.420 352.336,71.600 352.887,71.600 353.424 C 71.600 353.961,71.780 354.400,72.000 354.400 C 72.220 354.400,72.400 354.760,72.400 355.200 C 72.400 355.640,72.580 356.000,72.800 356.000 C 73.020 356.000,73.200 356.360,73.200 356.800 C 73.200 357.240,73.380 357.600,73.600 357.600 C 73.820 357.600,74.000 357.870,74.000 358.200 C 74.000 358.530,74.180 358.800,74.400 358.800 C 74.620 358.800,74.800 359.064,74.800 359.386 C 74.800 360.199,76.076 362.800,76.474 362.800 C 76.653 362.800,76.800 363.036,76.800 363.325 C 76.800 363.613,77.120 364.198,77.511 364.625 C 77.902 365.051,78.663 366.030,79.203 366.800 C 81.004 369.369,88.004 376.000,88.915 376.000 C 89.194 376.000,89.683 376.360,90.000 376.800 C 90.317 377.240,90.857 377.600,91.200 377.600 C 91.543 377.600,92.083 377.960,92.400 378.400 C 92.717 378.840,93.207 379.200,93.488 379.200 C 93.770 379.200,94.000 379.380,94.000 379.600 C 94.000 379.820,94.360 380.000,94.800 380.000 C 95.240 380.000,95.600 380.180,95.600 380.400 C 95.600 380.620,95.960 380.800,96.400 380.800 C 96.840 380.800,97.200 380.980,97.200 381.200 C 97.200 381.420,97.560 381.600,98.000 381.600 C 98.440 381.600,98.800 381.780,98.800 382.000 C 98.800 382.220,99.160 382.400,99.600 382.400 C 100.040 382.400,100.400 382.580,100.400 382.800 C 100.400 383.020,100.940 383.200,101.600 383.200 C 102.260 383.200,102.800 383.380,102.800 383.600 C 102.800 383.820,103.149 384.000,103.576 384.000 C 104.003 384.000,104.464 384.180,104.600 384.400 C 104.736 384.620,105.467 384.800,106.224 384.800 C 106.981 384.800,107.600 384.980,107.600 385.200 C 107.600 385.420,108.374 385.600,109.320 385.600 C 110.266 385.600,111.211 385.764,111.420 385.965 C 111.629 386.165,112.880 386.456,114.200 386.611 C 118.165 387.077,297.697 387.263,298.158 386.802 C 298.379 386.581,300.313 386.400,302.456 386.400 C 304.623 386.400,306.463 386.222,306.600 386.000 C 306.736 385.780,307.647 385.600,308.624 385.600 C 309.601 385.600,310.400 385.420,310.400 385.200 C 310.400 384.980,311.120 384.800,312.000 384.800 C 312.880 384.800,313.600 384.620,313.600 384.400 C 313.600 384.180,313.949 384.000,314.376 384.000 C 314.803 384.000,315.264 383.820,315.400 383.600 C 315.536 383.380,316.087 383.200,316.624 383.200 C 317.161 383.200,317.600 383.020,317.600 382.800 C 317.600 382.580,317.960 382.400,318.400 382.400 C 318.840 382.400,319.200 382.220,319.200 382.000 C 319.200 381.780,319.560 381.600,320.000 381.600 C 320.440 381.600,320.800 381.420,320.800 381.200 C 320.800 380.980,321.160 380.800,321.600 380.800 C 322.040 380.800,322.400 380.664,322.400 380.498 C 322.400 380.331,322.985 379.940,323.700 379.628 C 324.415 379.316,325.291 378.732,325.647 378.330 C 326.003 377.929,326.471 377.600,326.688 377.600 C 326.904 377.600,327.604 377.105,328.242 376.500 C 328.881 375.895,329.938 375.054,330.592 374.632 C 332.133 373.636,335.600 370.391,335.600 369.946 C 335.600 369.756,336.320 368.859,337.200 367.952 C 338.080 367.045,338.800 366.095,338.800 365.840 C 338.800 365.585,339.160 365.117,339.600 364.800 C 340.040 364.483,340.400 363.980,340.400 363.683 C 340.400 363.386,340.670 362.873,341.000 362.543 C 341.330 362.213,341.600 361.596,341.600 361.171 C 341.600 360.747,341.780 360.400,342.000 360.400 C 342.220 360.400,342.400 360.055,342.400 359.633 C 342.400 359.212,342.535 358.807,342.700 358.733 C 343.199 358.512,344.800 355.178,344.800 354.362 C 344.800 353.943,344.980 353.600,345.200 353.600 C 345.420 353.600,345.600 353.060,345.600 352.400 C 345.600 351.740,345.780 351.200,346.000 351.200 C 346.220 351.200,346.400 350.480,346.400 349.600 C 346.400 348.720,346.580 348.000,346.800 348.000 C 347.020 348.000,347.200 347.100,347.200 346.000 C 347.200 344.900,347.380 344.000,347.600 344.000 C 347.858 344.000,348.000 339.600,348.000 331.600 C 348.000 323.600,347.858 319.200,347.600 319.200 C 347.380 319.200,347.200 318.660,347.200 318.000 C 347.200 317.340,347.020 316.800,346.800 316.800 C 346.580 316.800,346.400 316.440,346.400 316.000 C 346.400 315.560,346.220 315.200,346.000 315.200 C 345.780 315.200,345.600 314.916,345.600 314.569 C 345.600 313.614,340.431 308.786,339.128 308.526 C 338.508 308.402,338.000 308.142,338.000 307.950 C 338.000 307.757,337.640 307.600,337.200 307.600 C 336.760 307.600,336.400 307.420,336.400 307.200 C 336.400 306.980,335.500 306.800,334.400 306.800 C 333.300 306.800,332.400 306.620,332.400 306.400 C 332.400 306.139,325.733 306.000,313.200 306.000 L 294.000 306.000 294.000 249.200 C 294.000 198.287,294.064 192.400,294.617 192.400 C 294.956 192.400,295.451 192.217,295.717 191.993 C 297.559 190.439,298.163 190.000,298.457 190.000 C 298.641 190.000,301.045 187.705,303.798 184.900 C 306.551 182.095,309.861 178.743,311.153 177.451 C 312.445 176.159,316.089 172.515,319.251 169.354 C 322.413 166.192,326.113 162.479,327.473 161.103 C 328.833 159.726,332.163 156.413,334.873 153.741 C 339.306 149.368,345.449 143.110,368.000 119.992 C 371.850 116.046,375.946 111.868,377.103 110.708 C 378.260 109.549,381.950 105.856,385.303 102.503 C 388.656 99.149,392.570 95.233,394.000 93.799 C 395.430 92.366,397.095 90.718,397.700 90.138 C 398.305 89.558,398.800 88.854,398.800 88.575 C 398.800 88.295,399.025 87.992,399.300 87.900 C 399.669 87.777,399.800 86.231,399.800 82.000 C 399.800 77.769,399.669 76.223,399.300 76.100 C 399.025 76.008,398.800 75.761,398.800 75.551 C 398.800 75.341,397.180 73.563,395.200 71.600 C 393.220 69.637,391.600 67.850,391.600 67.629 C 391.600 66.752,384.620 59.600,383.765 59.600 C 383.454 59.600,383.200 59.455,383.200 59.277 C 383.200 59.099,382.480 58.636,381.600 58.248 C 380.720 57.860,380.000 57.375,380.000 57.171 C 380.000 56.967,379.640 56.800,379.200 56.800 C 378.760 56.800,378.400 56.620,378.400 56.400 C 378.400 56.180,377.860 56.000,377.200 56.000 C 376.540 56.000,376.000 55.820,376.000 55.600 C 376.000 55.380,375.460 55.200,374.800 55.200 C 374.140 55.200,373.600 55.020,373.600 54.800 C 373.600 54.565,372.227 54.400,370.280 54.400 C 368.231 54.400,366.776 54.216,366.480 53.920 C 366.107 53.547,365.893 53.547,365.520 53.920 C 365.234 54.206,363.858 54.400,362.120 54.400 C 360.440 54.400,359.200 54.570,359.200 54.800 C 359.200 55.022,358.133 55.200,356.800 55.200 C 355.467 55.200,354.400 55.378,354.400 55.600 C 354.400 55.820,353.500 56.000,352.400 56.000 C 351.300 56.000,350.400 56.180,350.400 56.400 C 350.400 56.620,349.590 56.800,348.600 56.800 C 347.610 56.800,346.800 56.980,346.800 57.200 C 346.800 57.420,346.091 57.600,345.224 57.600 C 344.357 57.600,343.551 57.756,343.433 57.947 C 343.314 58.138,342.139 58.417,340.821 58.566 C 339.503 58.715,338.318 59.009,338.189 59.218 C 338.059 59.428,337.571 59.600,337.105 59.600 C 336.204 59.600,333.861 60.265,332.705 60.849 C 332.323 61.042,331.659 61.200,331.229 61.200 C 330.799 61.200,330.336 61.380,330.200 61.600 C 330.064 61.820,329.513 62.000,328.976 62.000 C 328.439 62.000,328.000 62.180,328.000 62.400 C 328.000 62.620,327.561 62.800,327.024 62.800 C 326.487 62.800,325.936 62.980,325.800 63.200 C 325.664 63.420,325.203 63.600,324.776 63.600 C 324.349 63.600,324.000 63.780,324.000 64.000 C 324.000 64.220,323.460 64.400,322.800 64.400 C 322.140 64.400,321.600 64.580,321.600 64.800 C 321.600 65.020,321.240 65.200,320.800 65.200 C 320.360 65.200,320.000 65.380,320.000 65.600 C 320.000 65.820,319.460 66.000,318.800 66.000 C 318.140 66.000,317.600 66.180,317.600 66.400 C 317.600 66.620,317.240 66.800,316.800 66.800 C 316.360 66.800,316.000 66.980,316.000 67.200 C 316.000 67.420,315.550 67.600,315.000 67.600 C 314.450 67.600,314.000 67.780,314.000 68.000 C 314.000 68.220,313.651 68.400,313.224 68.400 C 312.797 68.400,312.336 68.580,312.200 68.800 C 312.064 69.020,311.603 69.200,311.176 69.200 C 310.749 69.200,310.400 69.346,310.400 69.525 C 310.400 69.704,309.770 70.098,309.000 70.400 C 308.230 70.702,307.600 71.096,307.600 71.275 C 307.600 71.454,307.240 71.600,306.800 71.600 C 306.360 71.600,306.000 71.780,306.000 72.000 C 306.000 72.220,305.640 72.400,305.200 72.400 C 304.760 72.400,304.400 72.580,304.400 72.800 C 304.400 73.020,304.040 73.200,303.600 73.200 C 303.160 73.200,302.800 73.380,302.800 73.600 C 302.800 73.820,302.440 74.000,302.000 74.000 C 301.560 74.000,301.200 74.180,301.200 74.400 C 301.200 74.620,300.943 74.800,300.629 74.800 C 300.315 74.800,298.849 75.430,297.372 76.200 C 295.895 76.970,294.532 77.600,294.343 77.600 C 294.154 77.600,294.000 72.121,294.000 65.424 C 294.000 57.737,293.852 53.156,293.600 53.000 C 293.380 52.864,293.200 51.683,293.200 50.376 C 293.200 49.059,293.022 48.000,292.800 48.000 C 292.580 48.000,292.400 47.370,292.400 46.600 C 292.400 45.830,292.243 45.200,292.052 45.200 C 291.860 45.200,291.584 44.300,291.438 43.200 C 291.292 42.100,290.999 41.200,290.786 41.200 C 290.574 41.200,290.400 40.919,290.400 40.575 C 290.400 39.694,287.992 34.800,287.558 34.800 C 287.361 34.800,287.200 34.480,287.200 34.088 C 287.200 33.697,286.840 33.117,286.400 32.800 C 285.960 32.483,285.600 31.996,285.600 31.718 C 285.600 30.920,278.282 23.200,277.526 23.200 C 277.303 23.200,276.617 22.660,276.000 22.000 C 275.383 21.340,274.681 20.800,274.440 20.800 C 274.198 20.800,274.000 20.620,274.000 20.400 C 274.000 20.180,273.730 20.000,273.400 20.000 C 273.070 20.000,272.800 19.820,272.800 19.600 C 272.800 19.380,272.530 19.200,272.200 19.200 C 271.870 19.200,271.600 19.020,271.600 18.800 C 271.600 18.580,271.240 18.400,270.800 18.400 C 270.360 18.400,270.000 18.220,270.000 18.000 C 270.000 17.780,269.640 17.600,269.200 17.600 C 268.760 17.600,268.400 17.420,268.400 17.200 C 268.400 16.980,268.040 16.800,267.600 16.800 C 267.160 16.800,266.800 16.620,266.800 16.400 C 266.800 16.180,266.440 16.000,266.000 16.000 C 265.560 16.000,265.200 15.820,265.200 15.600 C 265.200 15.380,264.660 15.200,264.000 15.200 C 263.340 15.200,262.800 15.020,262.800 14.800 C 262.800 14.580,262.271 14.400,261.624 14.400 C 260.977 14.400,260.336 14.220,260.200 14.000 C 260.064 13.780,259.254 13.600,258.400 13.600 C 257.546 13.600,256.736 13.420,256.600 13.200 C 256.257 12.646,33.743 12.646,33.400 13.200 M46.688 29.643 C 56.321 35.015,65.115 46.308,67.213 56.000 C 68.393 61.456,68.800 64.147,68.800 66.500 L 68.800 69.200 42.974 69.200 C 25.936 69.200,16.884 69.059,16.374 68.786 C 15.167 68.140,15.219 53.676,16.445 48.776 C 18.717 39.696,25.780 32.415,34.800 29.856 C 39.434 28.542,44.548 28.450,46.688 29.643 M253.200 29.383 C 257.728 30.348,258.705 30.674,261.687 32.217 C 267.203 35.071,271.497 39.424,274.323 45.030 C 277.477 51.287,277.371 50.423,277.511 71.095 L 277.637 89.590 275.757 90.895 C 270.882 94.280,258.735 103.506,258.000 104.382 C 257.890 104.514,256.630 105.606,255.201 106.810 C 253.771 108.015,252.331 109.270,252.001 109.600 C 251.670 109.930,250.140 111.268,248.600 112.573 C 233.358 125.491,228.326 135.818,224.811 161.400 C 223.983 167.422,223.561 170.201,223.181 172.131 C 222.971 173.192,222.800 174.664,222.800 175.400 C 222.800 176.136,222.629 177.608,222.419 178.669 C 222.061 180.486,221.782 182.304,220.788 189.300 C 219.722 196.804,219.938 196.291,215.147 202.689 C 207.679 212.662,198.931 226.432,197.727 230.110 C 194.603 239.649,207.392 243.914,212.238 234.951 C 213.202 233.168,214.151 231.510,215.987 228.400 C 217.822 225.291,224.088 216.325,228.707 210.200 L 232.628 205.000 247.614 204.547 C 263.040 204.081,265.726 203.785,273.200 201.718 C 274.410 201.384,275.896 201.020,276.501 200.909 L 277.603 200.709 277.501 253.854 L 277.400 307.000 257.400 307.200 L 237.400 307.400 235.907 308.328 C 231.001 311.378,231.095 318.361,236.080 321.215 L 237.800 322.200 284.178 322.308 C 326.443 322.407,330.619 322.474,331.278 323.070 C 331.921 323.653,332.000 324.480,332.000 330.646 C 332.000 343.944,329.858 351.221,323.936 358.041 C 318.270 364.564,311.427 368.470,303.027 369.975 C 300.234 370.475,142.000 370.589,142.000 370.091 C 142.000 369.921,142.504 369.156,143.120 368.391 C 149.999 359.843,152.816 350.498,153.066 335.400 C 153.245 324.563,153.485 322.927,154.951 322.600 C 155.418 322.496,161.110 322.363,167.600 322.305 C 179.193 322.202,179.426 322.184,180.909 321.262 C 186.062 318.058,185.905 310.568,180.630 308.015 C 178.383 306.927,153.488 306.763,150.463 307.817 C 144.917 309.748,141.079 313.379,139.118 318.547 C 138.446 320.317,138.293 322.197,138.009 332.200 C 137.572 347.557,136.492 351.575,130.749 359.200 C 126.456 364.901,117.711 370.884,114.921 370.030 C 114.305 369.841,112.720 369.457,111.400 369.176 C 110.080 368.895,108.820 368.545,108.600 368.398 C 108.380 368.251,107.204 367.736,105.987 367.254 C 96.456 363.479,88.300 353.721,85.424 342.654 L 84.400 338.712 84.400 203.701 C 84.400 71.225,84.332 63.182,83.156 57.400 C 82.222 52.811,81.885 51.358,81.577 50.600 C 81.399 50.160,81.024 49.080,80.745 48.200 C 80.465 47.320,80.093 46.429,79.918 46.220 C 79.743 46.011,79.600 45.597,79.600 45.301 C 79.600 44.737,78.923 43.293,76.928 39.600 C 74.937 35.913,74.678 35.505,72.324 32.342 C 71.072 30.661,70.157 29.176,70.291 29.042 C 70.859 28.474,250.505 28.809,253.200 29.383 M371.924 71.625 C 374.992 73.158,382.610 81.291,381.992 82.372 C 381.605 83.047,374.242 90.541,332.600 132.639 C 284.570 181.195,286.245 179.635,278.000 183.486 C 273.125 185.763,272.906 185.855,271.000 186.429 C 270.120 186.694,269.040 187.052,268.600 187.224 C 268.160 187.396,267.170 187.638,266.400 187.762 C 265.630 187.885,263.560 188.256,261.800 188.586 C 258.603 189.184,247.186 189.453,246.676 188.942 C 245.984 188.251,267.505 166.442,280.567 154.597 C 282.749 152.619,284.729 150.820,284.967 150.600 C 285.205 150.380,287.020 148.850,289.000 147.201 C 290.980 145.551,292.690 144.110,292.800 143.998 C 293.469 143.318,298.586 139.087,303.400 135.232 C 306.480 132.766,309.360 130.451,309.800 130.087 C 310.240 129.724,313.930 126.932,318.000 123.884 C 322.070 120.835,325.670 118.126,326.000 117.864 C 326.330 117.601,327.770 116.579,329.200 115.593 C 330.630 114.607,331.890 113.695,332.000 113.566 C 332.110 113.438,333.820 112.235,335.800 110.894 C 346.467 103.670,347.005 103.078,346.993 98.597 C 346.974 91.534,339.679 89.290,332.925 94.270 C 331.784 95.112,328.904 97.137,326.525 98.771 C 324.146 100.405,320.580 102.935,318.600 104.394 C 313.606 108.073,300.656 117.793,299.748 118.544 C 299.337 118.884,297.380 120.439,295.400 122.000 C 290.639 125.753,291.573 124.985,283.237 132.002 C 279.187 135.411,275.497 138.563,275.037 139.007 C 274.577 139.451,271.950 141.787,269.200 144.197 C 266.450 146.608,258.601 154.209,251.759 161.090 C 239.633 173.283,238.168 174.574,238.585 172.700 C 238.695 172.205,239.252 168.470,239.823 164.400 C 240.395 160.330,241.014 155.920,241.201 154.600 C 243.026 141.676,247.925 133.310,259.600 123.184 C 271.885 112.528,292.743 96.800,294.590 96.800 C 294.736 96.800,295.608 96.291,296.528 95.669 C 300.304 93.116,312.435 86.650,317.789 84.336 C 319.335 83.668,321.500 82.709,322.600 82.206 C 323.700 81.702,326.130 80.713,328.000 80.007 C 329.870 79.301,331.760 78.570,332.200 78.382 C 332.640 78.195,334.260 77.648,335.800 77.168 C 337.340 76.688,338.960 76.157,339.400 75.988 C 345.308 73.721,360.670 70.527,366.036 70.450 C 369.123 70.405,369.721 70.524,371.924 71.625 M122.200 95.568 C 116.111 97.063,114.970 105.576,120.369 109.231 L 121.800 110.200 166.400 110.200 L 211.000 110.200 212.431 109.231 C 217.038 106.112,217.048 99.504,212.451 96.354 L 211.059 95.400 167.229 95.337 C 143.123 95.302,122.860 95.406,122.200 95.568 M121.980 149.726 C 115.963 151.735,115.014 159.607,120.354 163.221 L 121.800 164.200 155.231 164.200 L 188.662 164.200 190.093 163.109 C 194.538 159.718,194.508 153.763,190.030 150.600 L 188.332 149.400 155.866 149.326 C 131.738 149.271,123.035 149.374,121.980 149.726 M122.004 205.326 C 115.345 207.447,115.203 217.445,121.800 219.643 C 124.018 220.383,169.136 220.684,172.375 219.981 C 180.613 218.193,181.567 207.629,173.701 205.300 C 171.440 204.631,124.113 204.655,122.004 205.326 M122.200 260.944 C 115.837 262.703,114.923 271.802,120.807 274.804 C 122.338 275.585,123.226 275.600,166.449 275.600 L 210.530 275.600 212.239 274.598 C 218.159 271.129,216.784 262.438,210.069 260.891 C 207.186 260.227,124.614 260.276,122.200 260.944 M205.121 308.016 C 198.976 311.262,200.046 320.514,206.732 321.948 C 213.712 323.445,218.645 315.938,214.497 310.132 C 212.578 307.446,208.111 306.438,205.121 308.016 " stroke="none" fill="#050504" fill-rule="evenodd"></path><path id="path1" d="M71.200 29.422 C 71.200 29.647,73.367 32.513,74.290 33.509 C 74.560 33.799,75.090 34.704,75.469 35.519 C 75.848 36.333,76.258 37.090,76.379 37.200 C 76.501 37.310,76.977 38.120,77.438 39.000 C 77.900 39.880,78.665 41.280,79.138 42.112 C 79.612 42.944,80.000 43.979,80.000 44.412 C 80.000 44.845,80.180 45.200,80.400 45.200 C 80.620 45.200,80.800 45.562,80.800 46.005 C 80.800 46.448,80.959 47.123,81.153 47.505 C 82.030 49.229,82.835 51.767,83.403 54.600 C 83.535 55.260,83.847 56.610,84.095 57.600 C 84.425 58.911,84.622 97.001,84.821 197.800 C 85.112 345.062,85.017 339.064,87.166 345.995 C 87.793 348.018,90.337 353.050,91.018 353.615 C 91.338 353.881,91.600 354.346,91.600 354.649 C 91.600 354.952,91.738 355.200,91.906 355.200 C 92.074 355.200,92.638 355.875,93.160 356.700 C 94.524 358.858,103.598 366.000,104.974 366.000 C 105.103 366.000,106.062 366.378,107.104 366.840 C 110.214 368.218,110.540 368.335,112.000 368.599 C 116.819 369.470,118.828 368.872,123.800 365.090 C 129.192 360.988,135.600 351.683,135.600 347.956 C 135.600 347.566,135.780 347.136,136.000 347.000 C 136.220 346.864,136.400 346.144,136.400 345.400 C 136.400 344.656,136.580 343.936,136.800 343.800 C 137.050 343.645,137.200 339.664,137.200 333.182 C 137.200 323.453,137.470 320.229,138.447 318.305 C 138.641 317.923,138.800 317.338,138.800 317.005 C 138.800 316.672,138.936 316.400,139.102 316.400 C 139.269 316.400,139.641 315.865,139.930 315.212 C 140.706 313.461,145.011 309.200,146.005 309.200 C 146.222 309.200,146.401 309.065,146.403 308.900 C 146.407 308.499,148.381 307.600,149.256 307.600 C 149.639 307.600,150.050 307.443,150.169 307.250 C 150.973 305.949,180.800 305.846,180.800 307.144 C 180.800 307.288,181.301 307.626,181.912 307.897 C 183.072 308.410,185.600 312.127,185.600 313.319 C 185.600 313.936,186.300 314.000,193.000 314.000 L 200.400 314.000 200.400 312.991 C 200.400 311.562,202.180 309.052,204.091 307.788 C 205.853 306.621,211.586 306.158,211.919 307.156 C 212.000 307.400,212.277 307.600,212.533 307.600 C 213.802 307.602,216.800 311.666,216.800 313.384 C 216.800 313.916,217.804 314.000,224.200 314.000 C 231.518 314.000,231.600 313.990,231.600 313.135 C 231.600 310.645,235.068 307.214,238.209 306.596 C 239.084 306.423,248.215 306.216,258.500 306.134 L 277.200 305.985 277.200 253.601 L 277.200 201.217 276.300 201.572 C 270.139 204.004,264.331 204.759,248.000 205.251 C 231.678 205.744,233.132 205.444,230.808 208.800 C 230.274 209.570,229.514 210.491,229.119 210.847 C 228.724 211.203,228.400 211.606,228.400 211.742 C 228.400 211.987,227.484 213.180,226.500 214.216 C 226.225 214.506,226.000 214.921,226.000 215.138 C 226.000 215.355,225.854 215.593,225.676 215.667 C 225.196 215.864,216.800 228.253,216.800 228.763 C 216.800 229.004,216.641 229.200,216.447 229.200 C 216.252 229.200,215.993 229.515,215.871 229.900 C 215.634 230.647,214.354 232.867,213.968 233.200 C 213.840 233.310,213.481 233.985,213.170 234.700 C 212.859 235.415,212.469 236.000,212.302 236.000 C 212.136 236.000,212.000 236.182,212.000 236.403 C 212.000 238.889,203.427 242.385,202.200 240.400 C 202.064 240.180,201.643 240.000,201.265 240.000 C 200.191 240.000,197.721 237.343,196.972 235.383 C 195.813 232.346,196.434 229.847,199.680 224.493 C 200.516 223.114,201.200 221.893,201.200 221.780 C 201.200 221.666,202.460 219.695,204.000 217.400 C 205.540 215.105,206.800 213.041,206.800 212.813 C 206.800 212.586,206.938 212.400,207.106 212.400 C 207.274 212.400,207.856 211.680,208.400 210.800 C 208.944 209.920,209.526 209.200,209.694 209.200 C 209.862 209.200,210.000 208.964,210.000 208.675 C 210.000 208.387,210.320 207.802,210.711 207.375 C 211.102 206.949,211.862 205.970,212.400 205.200 C 212.938 204.430,213.524 203.620,213.701 203.400 C 213.879 203.180,214.747 202.010,215.631 200.800 C 216.514 199.590,217.634 198.084,218.119 197.454 C 218.603 196.824,219.130 195.384,219.290 194.254 C 219.449 193.124,219.769 190.940,220.000 189.400 C 220.597 185.432,221.122 181.842,221.582 178.600 C 221.800 177.060,222.168 174.540,222.400 173.000 C 223.326 166.843,223.641 164.496,223.849 162.200 C 223.969 160.880,224.232 159.629,224.434 159.420 C 224.635 159.211,224.800 157.917,224.800 156.544 C 224.800 155.171,224.980 153.936,225.200 153.800 C 225.420 153.664,225.600 152.584,225.600 151.400 C 225.600 150.216,225.780 149.136,226.000 149.000 C 226.220 148.864,226.400 148.054,226.400 147.200 C 226.400 146.346,226.580 145.536,226.800 145.400 C 227.020 145.264,227.200 144.544,227.200 143.800 C 227.200 143.056,227.380 142.336,227.600 142.200 C 227.820 142.064,228.000 141.524,228.000 141.000 C 228.000 140.476,228.180 139.936,228.400 139.800 C 228.620 139.664,228.800 139.202,228.800 138.773 C 228.800 137.328,233.582 127.649,234.485 127.267 C 234.658 127.193,234.800 126.912,234.800 126.642 C 234.800 126.372,235.120 125.802,235.511 125.375 C 235.902 124.949,236.662 123.970,237.201 123.200 C 238.640 121.142,243.711 115.934,247.600 112.519 C 249.470 110.878,251.990 108.666,253.200 107.604 C 254.410 106.542,256.030 105.165,256.800 104.545 C 257.570 103.924,258.470 103.127,258.800 102.775 C 259.596 101.923,266.777 96.391,269.800 94.299 C 271.120 93.386,272.549 92.315,272.975 91.919 C 273.402 91.524,273.987 91.200,274.275 91.200 C 274.564 91.200,274.800 91.059,274.800 90.886 C 274.800 90.714,275.340 90.254,276.000 89.864 L 277.200 89.155 277.200 72.201 C 277.200 61.330,277.056 55.159,276.800 55.000 C 276.580 54.864,276.400 53.964,276.400 53.000 C 276.400 52.036,276.220 51.136,276.000 51.000 C 275.780 50.864,275.600 50.223,275.600 49.576 C 275.600 48.929,275.420 48.400,275.200 48.400 C 274.980 48.400,274.800 47.950,274.800 47.400 C 274.800 46.850,274.664 46.400,274.498 46.400 C 274.331 46.400,273.946 45.815,273.641 45.100 C 272.073 41.422,266.212 35.318,262.600 33.600 C 261.940 33.286,260.922 32.707,260.338 32.314 C 259.754 31.921,258.910 31.600,258.462 31.600 C 258.014 31.600,257.536 31.420,257.400 31.200 C 257.264 30.980,256.749 30.800,256.256 30.800 C 255.763 30.800,255.189 30.635,254.980 30.432 C 254.771 30.230,253.340 29.942,251.800 29.791 C 248.431 29.462,71.200 29.100,71.200 29.422 M210.880 94.900 C 215.646 96.330,218.247 102.155,215.965 106.288 C 215.051 107.942,213.476 109.600,212.817 109.600 C 212.588 109.600,212.400 109.780,212.400 110.000 C 212.400 110.220,211.871 110.400,211.224 110.400 C 210.577 110.400,209.936 110.580,209.800 110.800 C 209.638 111.063,194.737 111.200,166.400 111.200 C 138.063 111.200,123.162 111.063,123.000 110.800 C 122.864 110.580,122.266 110.400,121.672 110.400 C 120.404 110.400,118.052 108.456,116.833 106.400 C 114.484 102.438,116.893 96.701,121.621 94.993 C 123.637 94.265,208.468 94.177,210.880 94.900 M190.000 149.587 C 191.907 150.931,192.231 151.275,193.179 152.963 C 194.270 154.905,194.342 159.460,193.300 160.646 C 192.915 161.085,192.405 161.794,192.167 162.222 C 191.929 162.650,191.344 163.178,190.867 163.395 C 190.390 163.612,190.000 163.927,190.000 164.095 C 190.000 164.263,189.651 164.400,189.224 164.400 C 188.797 164.400,188.336 164.580,188.200 164.800 C 187.639 165.708,123.018 165.307,121.052 164.383 C 114.922 161.501,114.162 153.873,119.617 149.988 C 121.713 148.495,122.209 148.476,156.200 148.539 L 188.600 148.600 190.000 149.587 M175.508 205.200 C 175.980 205.640,176.544 206.000,176.761 206.000 C 176.977 206.000,177.474 206.540,177.864 207.200 C 178.254 207.860,178.714 208.400,178.886 208.400 C 179.059 208.400,179.200 208.839,179.200 209.376 C 179.200 209.913,179.380 210.464,179.600 210.600 C 179.820 210.736,180.000 211.636,180.000 212.600 C 180.000 213.564,179.820 214.464,179.600 214.600 C 179.380 214.736,179.200 215.135,179.200 215.486 C 179.200 216.529,177.298 218.709,175.437 219.800 L 173.701 220.817 147.550 220.708 L 121.400 220.600 119.552 219.316 C 114.732 215.969,114.809 209.104,119.707 205.635 L 121.400 204.436 148.025 204.418 C 174.109 204.400,174.667 204.416,175.508 205.200 M211.481 260.492 C 212.097 260.762,212.690 261.082,212.800 261.201 C 212.910 261.321,213.495 261.733,214.100 262.118 C 214.705 262.503,215.200 263.084,215.200 263.409 C 215.200 263.734,215.335 264.001,215.500 264.003 C 216.901 264.018,217.224 269.620,215.955 271.880 C 215.031 273.525,213.289 275.199,212.500 275.200 C 212.225 275.200,212.000 275.380,212.000 275.600 C 212.000 275.820,211.381 276.000,210.624 276.000 C 209.867 276.000,209.136 276.180,209.000 276.400 C 208.838 276.663,194.204 276.800,166.400 276.800 C 138.596 276.800,123.962 276.663,123.800 276.400 C 123.664 276.180,123.006 276.000,122.338 276.000 C 116.359 276.000,113.598 263.744,119.119 261.709 C 119.493 261.571,119.890 261.350,120.000 261.218 C 120.920 260.113,123.229 260.054,166.281 260.027 C 200.333 260.006,210.617 260.112,211.481 260.492 " stroke="none" fill="#fbdb64" fill-rule="evenodd"></path><path id="path2" d="M362.000 71.190 C 361.010 71.373,359.120 71.721,357.800 71.963 C 353.614 72.731,352.068 73.075,346.700 74.429 C 345.765 74.665,344.413 74.955,343.696 75.073 C 342.979 75.192,342.294 75.449,342.173 75.644 C 342.052 75.840,341.601 76.000,341.171 76.000 C 340.741 76.000,340.077 76.159,339.695 76.354 C 339.313 76.549,337.740 77.098,336.200 77.574 C 334.660 78.051,333.040 78.599,332.600 78.791 C 332.160 78.984,329.910 79.857,327.600 80.732 C 320.631 83.372,309.626 88.584,303.100 92.337 C 302.275 92.812,301.015 93.536,300.300 93.946 C 299.585 94.356,298.280 95.109,297.400 95.620 C 294.482 97.313,280.369 106.788,278.800 108.107 C 278.470 108.384,277.570 109.050,276.800 109.586 C 276.030 110.123,275.310 110.661,275.200 110.783 C 275.090 110.905,274.341 111.496,273.535 112.096 C 272.729 112.697,271.829 113.422,271.535 113.708 C 271.241 113.994,268.840 116.021,266.200 118.214 C 254.129 128.239,250.000 132.645,246.473 139.263 C 243.870 144.147,242.572 148.435,241.589 155.400 C 241.372 156.940,241.021 159.370,240.810 160.800 C 239.999 166.298,239.611 169.072,239.383 171.000 L 239.147 173.000 248.874 163.194 C 259.904 152.073,264.075 148.100,273.009 140.200 C 274.502 138.880,275.920 137.620,276.161 137.400 C 276.403 137.180,277.770 136.011,279.200 134.802 C 280.630 133.594,281.890 132.511,282.000 132.397 C 282.110 132.283,283.190 131.382,284.400 130.396 C 285.610 129.410,286.805 128.423,287.057 128.202 C 288.532 126.904,291.418 124.580,298.000 119.388 C 302.070 116.178,305.717 113.293,306.105 112.976 C 306.492 112.659,306.987 112.400,307.205 112.400 C 307.422 112.400,307.600 112.259,307.600 112.086 C 307.600 111.914,308.133 111.457,308.785 111.072 C 309.437 110.687,310.202 110.147,310.485 109.873 C 310.768 109.598,311.630 108.938,312.400 108.406 C 313.170 107.874,313.890 107.339,314.000 107.217 C 314.420 106.751,317.563 104.471,322.388 101.130 C 325.145 99.221,327.610 97.473,327.867 97.245 C 336.590 89.496,344.520 89.128,347.221 96.348 C 348.508 99.788,345.729 106.400,342.996 106.400 C 342.705 106.400,342.407 106.547,342.333 106.728 C 342.260 106.908,341.030 107.839,339.600 108.798 C 338.170 109.756,336.910 110.658,336.800 110.802 C 336.690 110.946,335.250 111.973,333.600 113.084 C 331.021 114.819,321.805 121.484,319.997 122.920 C 319.665 123.184,317.595 124.750,315.397 126.400 C 313.199 128.050,308.160 132.008,304.200 135.195 C 295.610 142.108,295.633 142.090,295.055 142.612 C 294.805 142.839,293.160 144.255,291.400 145.759 C 278.832 156.497,255.552 178.892,249.200 186.355 L 247.025 188.911 253.413 188.695 C 263.823 188.345,269.902 186.901,278.200 182.808 C 286.460 178.734,284.798 180.285,331.171 133.381 C 340.317 124.131,355.418 108.876,364.729 99.482 C 374.139 89.989,381.601 82.149,381.529 81.834 C 381.279 80.738,373.692 72.989,371.956 72.057 C 369.994 71.004,365.243 70.590,362.000 71.190 " stroke="none" fill="#d3eafa" fill-rule="evenodd"></path><path id="path3" d="M38.200 29.696 C 36.880 29.905,35.440 30.214,35.000 30.383 C 34.560 30.551,33.498 30.915,32.641 31.192 C 26.184 33.274,19.419 40.412,17.470 47.200 C 15.868 52.775,15.306 66.849,16.632 68.174 C 17.196 68.739,19.972 68.795,42.732 68.703 L 68.200 68.600 68.069 65.400 C 67.473 50.789,59.131 37.263,46.257 30.032 C 44.637 29.122,42.410 29.029,38.200 29.696 M249.200 29.588 C 249.530 29.808,250.415 29.991,251.167 29.994 C 252.960 30.002,252.641 29.775,250.400 29.450 C 249.142 29.267,248.781 29.309,249.200 29.588 M82.644 52.600 C 82.973 54.071,83.202 54.390,83.194 53.367 C 83.191 52.945,83.005 52.330,82.782 52.000 C 82.485 51.562,82.448 51.724,82.644 52.600 M276.428 53.676 C 276.413 54.268,276.580 54.864,276.800 55.000 C 277.278 55.295,277.278 54.511,276.800 53.400 C 276.493 52.686,276.453 52.715,276.428 53.676 M83.458 56.400 C 83.775 58.125,84.002 58.451,83.994 57.167 C 83.991 56.635,83.811 55.930,83.594 55.600 C 83.318 55.178,83.277 55.415,83.458 56.400 M84.292 62.200 C 84.388 64.180,84.527 65.980,84.601 66.200 C 84.884 67.035,84.706 60.552,84.420 59.600 C 84.254 59.050,84.197 60.220,84.292 62.200 M216.244 100.600 C 216.573 102.071,216.802 102.390,216.794 101.367 C 216.791 100.945,216.605 100.330,216.382 100.000 C 216.085 99.562,216.048 99.724,216.244 100.600 M260.844 101.004 C 259.878 101.772,259.248 102.393,259.444 102.385 C 259.816 102.369,263.149 99.613,262.800 99.610 C 262.690 99.609,261.810 100.236,260.844 101.004 M116.038 102.600 C 116.024 103.920,116.156 105.227,116.332 105.504 C 116.508 105.780,116.582 104.880,116.497 103.504 C 116.287 100.110,116.069 99.680,116.038 102.600 M248.975 111.300 L 247.800 112.600 249.100 111.425 C 249.815 110.779,250.400 110.194,250.400 110.125 C 250.400 109.816,250.070 110.088,248.975 111.300 M123.062 110.900 C 123.304 111.292,209.496 111.292,209.738 110.900 C 209.840 110.735,190.338 110.600,166.400 110.600 C 142.462 110.600,122.960 110.735,123.062 110.900 M244.985 114.900 L 243.000 117.000 245.192 115.000 C 246.397 113.900,247.462 112.955,247.558 112.900 C 247.655 112.845,247.562 112.800,247.352 112.800 C 247.142 112.800,246.077 113.745,244.985 114.900 M240.981 118.900 L 239.400 120.600 241.100 119.019 C 242.681 117.548,242.984 117.200,242.681 117.200 C 242.616 117.200,241.851 117.965,240.981 118.900 M232.214 130.635 C 231.841 131.204,231.605 131.738,231.689 131.822 C 231.773 131.907,232.158 131.441,232.544 130.788 C 233.406 129.328,233.148 129.209,232.214 130.635 M139.300 148.700 C 148.045 148.760,162.355 148.760,171.100 148.700 C 179.845 148.640,172.690 148.591,155.200 148.591 C 137.710 148.591,130.555 148.640,139.300 148.700 M187.995 149.095 C 188.542 149.197,189.470 149.622,190.057 150.040 C 190.643 150.458,191.272 150.800,191.455 150.800 C 191.637 150.800,191.123 150.350,190.314 149.800 C 189.505 149.250,188.428 148.825,187.921 148.854 C 187.035 148.907,187.038 148.916,187.995 149.095 M225.067 153.867 C 224.920 154.013,224.811 154.508,224.825 154.967 C 224.849 155.733,224.882 155.723,225.234 154.842 C 225.626 153.863,225.544 153.389,225.067 153.867 M116.128 156.800 C 116.128 158.230,116.201 158.815,116.289 158.100 C 116.378 157.385,116.378 156.215,116.289 155.500 C 116.201 154.785,116.128 155.370,116.128 156.800 M224.267 159.467 C 224.120 159.613,224.011 160.108,224.025 160.567 C 224.049 161.333,224.082 161.323,224.434 160.442 C 224.826 159.463,224.744 158.989,224.267 159.467 M117.820 162.109 C 117.928 162.388,118.417 162.862,118.908 163.161 C 119.759 163.680,119.755 163.656,118.830 162.653 C 117.748 161.477,117.534 161.362,117.820 162.109 M122.000 164.794 C 122.330 165.011,123.035 165.191,123.567 165.194 C 124.851 165.202,124.525 164.975,122.800 164.658 C 121.815 164.477,121.578 164.518,122.000 164.794 M186.800 164.800 L 185.800 165.120 186.876 165.160 C 187.468 165.182,188.064 165.020,188.200 164.800 C 188.481 164.345,188.220 164.345,186.800 164.800 M223.449 165.015 C 223.312 165.373,223.215 165.966,223.234 166.333 C 223.253 166.700,223.427 166.469,223.621 165.820 C 223.998 164.558,223.865 163.933,223.449 165.015 M222.649 170.615 C 222.512 170.973,222.415 171.566,222.434 171.933 C 222.453 172.300,222.627 172.069,222.821 171.420 C 223.198 170.158,223.065 169.533,222.649 170.615 M221.849 175.815 C 221.712 176.173,221.616 176.856,221.636 177.333 C 221.662 177.947,221.785 177.808,222.059 176.856 C 222.457 175.472,222.294 174.658,221.849 175.815 M221.049 181.415 C 220.912 181.773,220.815 182.366,220.834 182.733 C 220.853 183.100,221.027 182.869,221.221 182.220 C 221.598 180.958,221.465 180.333,221.049 181.415 M220.249 187.015 C 220.112 187.373,220.018 188.056,220.041 188.533 C 220.067 189.081,220.203 188.886,220.410 188.003 C 220.760 186.516,220.665 185.933,220.249 187.015 M219.449 192.215 C 219.312 192.573,219.221 193.346,219.246 193.933 C 219.280 194.732,219.370 194.598,219.604 193.400 C 219.935 191.700,219.862 191.140,219.449 192.215 M268.500 203.476 C 268.885 203.576,269.515 203.576,269.900 203.476 C 270.285 203.375,269.970 203.293,269.200 203.293 C 268.430 203.293,268.115 203.375,268.500 203.476 M262.400 204.420 C 261.726 204.649,262.051 204.684,263.400 204.528 C 264.500 204.401,265.475 204.231,265.567 204.149 C 265.882 203.868,263.399 204.080,262.400 204.420 M173.800 204.800 C 174.901 205.273,175.292 205.273,175.000 204.800 C 174.864 204.580,174.358 204.413,173.876 204.428 C 173.031 204.455,173.029 204.469,173.800 204.800 M249.300 205.098 C 251.225 205.171,254.375 205.171,256.300 205.098 C 258.225 205.025,256.650 204.965,252.800 204.965 C 248.950 204.965,247.375 205.025,249.300 205.098 M239.513 205.495 C 240.676 205.576,242.476 205.576,243.513 205.493 C 244.551 205.411,243.600 205.345,241.400 205.346 C 239.200 205.347,238.351 205.414,239.513 205.495 M229.693 209.600 C 229.418 210.040,229.331 210.400,229.500 210.400 C 229.669 210.400,230.032 210.040,230.307 209.600 C 230.582 209.160,230.669 208.800,230.500 208.800 C 230.331 208.800,229.968 209.160,229.693 209.600 M116.249 209.815 C 116.112 210.173,116.028 211.486,116.063 212.733 L 116.126 215.000 116.386 212.200 C 116.664 209.198,116.641 208.795,116.249 209.815 M179.400 212.602 C 179.400 213.769,179.535 214.640,179.700 214.538 C 179.865 214.436,180.000 213.564,180.000 212.600 C 180.000 211.636,179.865 210.765,179.700 210.663 C 179.535 210.562,179.400 211.435,179.400 212.602 M116.802 216.233 C 116.803 216.435,117.268 217.140,117.835 217.800 L 118.866 219.000 117.963 217.600 C 116.804 215.804,116.800 215.799,116.802 216.233 M177.078 218.213 C 176.460 218.756,176.114 219.200,176.308 219.200 C 176.502 219.200,177.083 218.750,177.600 218.200 C 178.795 216.928,178.531 216.934,177.078 218.213 M221.600 220.800 C 221.130 221.460,220.836 222.000,220.946 222.000 C 221.056 222.000,221.530 221.460,222.000 220.800 C 222.470 220.140,222.764 219.600,222.654 219.600 C 222.544 219.600,222.070 220.140,221.600 220.800 M134.900 220.700 C 142.105 220.761,153.895 220.761,161.100 220.700 C 168.305 220.639,162.410 220.589,148.000 220.589 C 133.590 220.589,127.695 220.639,134.900 220.700 M198.823 225.850 C 198.353 226.648,198.033 227.366,198.113 227.446 C 198.192 227.526,198.661 226.873,199.154 225.996 C 200.275 224.002,199.988 223.877,198.823 225.850 M196.514 232.600 C 196.517 233.700,196.595 234.103,196.687 233.495 C 196.779 232.886,196.777 231.986,196.682 231.495 C 196.587 231.003,196.511 231.500,196.514 232.600 M209.600 238.860 C 208.830 239.535,208.562 239.905,209.004 239.681 C 209.735 239.311,211.547 237.578,211.162 237.616 C 211.073 237.625,210.370 238.185,209.600 238.860 M117.603 263.260 C 116.941 264.173,116.401 265.118,116.401 265.360 C 116.402 265.602,116.782 265.170,117.245 264.400 C 117.708 263.630,118.365 262.685,118.706 262.300 C 119.046 261.915,119.207 261.600,119.065 261.600 C 118.922 261.600,118.264 262.347,117.603 263.260 M214.283 262.788 C 214.654 263.221,215.038 263.496,215.136 263.398 C 215.374 263.159,214.395 262.000,213.955 262.000 C 213.764 262.000,213.911 262.355,214.283 262.788 M216.028 265.476 C 216.118 266.515,216.744 267.396,216.772 266.524 C 216.787 266.042,216.620 265.536,216.400 265.400 C 216.180 265.264,216.013 265.298,216.028 265.476 M116.124 268.200 C 116.126 269.520,116.201 270.012,116.290 269.293 C 116.379 268.574,116.377 267.494,116.286 266.893 C 116.195 266.292,116.122 266.880,116.124 268.200 M216.352 269.913 C 216.221 270.707,216.279 271.081,216.501 270.859 C 216.703 270.657,216.801 270.067,216.719 269.546 C 216.593 268.745,216.537 268.802,216.352 269.913 M123.862 276.500 C 123.964 276.665,143.106 276.800,166.400 276.800 C 189.694 276.800,208.836 276.665,208.938 276.500 C 209.040 276.335,189.898 276.200,166.400 276.200 C 142.902 276.200,123.760 276.335,123.862 276.500 M154.600 306.400 C 154.129 306.602,158.822 306.753,166.000 306.766 C 174.014 306.780,177.994 306.655,177.600 306.400 C 176.854 305.918,155.722 305.918,154.600 306.400 M239.600 306.400 C 239.208 306.653,245.621 306.790,258.100 306.794 C 270.571 306.798,277.200 306.661,277.200 306.400 C 277.200 305.863,240.431 305.863,239.600 306.400 M232.791 310.278 C 232.136 311.311,231.600 312.571,231.600 313.078 L 231.600 314.000 224.250 314.000 L 216.900 314.000 216.647 312.736 C 216.508 312.041,216.311 311.556,216.208 311.659 C 216.106 311.761,216.213 312.537,216.446 313.382 C 217.946 318.815,211.004 324.599,205.746 322.299 C 202.633 320.937,200.953 318.827,200.532 315.753 L 200.291 314.000 192.996 314.000 L 185.700 314.000 185.447 312.736 C 185.308 312.041,185.109 311.558,185.004 311.663 C 184.899 311.767,184.994 312.471,185.215 313.226 C 186.130 316.356,184.026 320.348,180.616 321.950 C 178.900 322.757,178.207 322.800,166.884 322.800 C 158.143 322.800,154.832 322.928,154.480 323.280 C 154.141 323.619,154.000 325.968,154.000 331.296 C 154.000 346.279,151.727 356.459,146.728 363.872 C 146.107 364.792,145.600 365.737,145.600 365.972 C 145.600 366.207,145.420 366.400,145.200 366.400 C 144.980 366.400,144.800 366.578,144.800 366.795 C 144.800 367.171,144.033 368.224,142.871 369.445 C 142.161 370.191,296.054 370.283,301.579 369.539 C 311.700 368.177,322.685 361.204,326.395 353.788 C 326.942 352.695,327.482 351.710,327.595 351.600 C 330.495 348.785,333.196 327.095,331.054 323.826 L 330.382 322.800 284.297 322.800 L 238.211 322.800 236.121 321.742 C 231.780 319.546,230.479 314.655,233.109 310.423 C 233.801 309.311,234.280 308.400,234.175 308.400 C 234.069 308.400,233.446 309.245,232.791 310.278 M215.037 310.200 C 215.397 310.750,215.757 311.200,215.837 311.200 C 215.917 311.200,215.778 310.750,215.527 310.200 C 215.277 309.650,214.916 309.200,214.727 309.200 C 214.537 309.200,214.676 309.650,215.037 310.200 M200.554 311.777 C 200.432 312.094,200.403 312.679,200.489 313.077 C 200.587 313.528,200.724 313.312,200.854 312.500 C 201.071 311.138,200.930 310.796,200.554 311.777 M137.456 321.684 C 137.321 322.188,137.246 326.470,137.288 331.200 L 137.365 339.800 137.582 330.400 C 137.702 325.230,137.778 320.948,137.751 320.884 C 137.724 320.820,137.591 321.180,137.456 321.684 M85.099 337.800 C 85.216 339.340,85.377 340.675,85.456 340.767 C 85.734 341.088,85.517 336.989,85.203 336.000 C 85.019 335.419,84.975 336.173,85.099 337.800 M85.844 342.600 C 86.173 344.071,86.402 344.390,86.394 343.367 C 86.391 342.945,86.205 342.330,85.982 342.000 C 85.685 341.562,85.648 341.724,85.844 342.600 M86.806 345.833 C 86.809 346.255,86.995 346.870,87.218 347.200 C 87.515 347.638,87.552 347.476,87.356 346.600 C 87.027 345.129,86.798 344.810,86.806 345.833 M135.867 347.067 C 135.720 347.213,135.611 347.708,135.625 348.167 C 135.649 348.933,135.682 348.923,136.034 348.042 C 136.426 347.063,136.344 346.589,135.867 347.067 M127.290 361.956 C 126.349 362.922,125.640 363.774,125.715 363.848 C 125.789 363.922,126.637 363.181,127.600 362.200 C 128.563 361.219,129.271 360.368,129.175 360.307 C 129.079 360.247,128.230 360.989,127.290 361.956 M96.873 360.900 C 98.215 362.165,98.981 362.555,98.030 361.488 C 97.497 360.890,96.899 360.400,96.702 360.400 C 96.504 360.400,96.581 360.625,96.873 360.900 M123.600 365.249 C 122.206 366.471,122.205 366.472,123.488 365.619 C 124.196 365.148,124.882 364.591,125.012 364.381 C 125.397 363.757,125.077 363.954,123.600 365.249 M110.833 368.543 C 110.925 368.621,111.630 368.801,112.400 368.942 C 113.385 369.123,113.622 369.082,113.200 368.806 C 112.658 368.450,110.437 368.203,110.833 368.543 " stroke="none" fill="#fab35b" fill-rule="evenodd"></path><path id="path4" d="M38.200 29.076 C 28.026 30.400,18.997 38.576,16.445 48.776 C 15.219 53.676,15.167 68.140,16.374 68.786 C 16.884 69.059,25.936 69.200,42.974 69.200 L 68.800 69.200 68.800 66.500 C 68.800 64.147,68.393 61.456,67.213 56.000 C 65.436 47.788,58.446 37.768,50.610 32.199 C 45.747 28.743,44.046 28.315,38.200 29.076 M70.291 29.042 C 70.157 29.176,71.072 30.661,72.324 32.342 C 74.678 35.505,74.937 35.913,76.928 39.600 C 78.923 43.293,79.600 44.737,79.600 45.301 C 79.600 45.597,79.743 46.011,79.918 46.220 C 80.093 46.429,80.465 47.320,80.745 48.200 C 81.024 49.080,81.399 50.160,81.577 50.600 C 81.885 51.358,82.222 52.811,83.156 57.400 C 84.332 63.182,84.400 71.225,84.400 203.701 L 84.400 338.712 85.424 342.654 C 88.300 353.721,96.456 363.479,105.987 367.254 C 107.204 367.736,108.380 368.251,108.600 368.398 C 108.820 368.545,110.080 368.895,111.400 369.176 C 112.720 369.457,114.305 369.841,114.921 370.030 C 117.711 370.884,126.456 364.901,130.749 359.200 C 136.492 351.575,137.572 347.557,138.009 332.200 C 138.293 322.197,138.446 320.317,139.118 318.547 C 141.079 313.379,144.917 309.748,150.463 307.817 C 153.488 306.763,178.383 306.927,180.630 308.015 C 185.905 310.568,186.062 318.058,180.909 321.262 C 179.426 322.184,179.193 322.202,167.600 322.305 C 161.110 322.363,155.418 322.496,154.951 322.600 C 153.485 322.927,153.245 324.563,153.066 335.400 C 152.816 350.498,149.999 359.843,143.120 368.391 C 142.504 369.156,142.000 369.921,142.000 370.091 C 142.000 370.589,300.234 370.475,303.027 369.975 C 307.098 369.246,310.334 368.139,313.826 366.282 C 319.233 363.406,324.724 358.031,327.599 352.802 C 329.218 349.857,331.373 343.918,331.109 343.128 C 331.023 342.870,330.462 344.175,329.863 346.029 C 328.821 349.251,328.041 351.168,327.595 351.600 C 327.482 351.710,326.942 352.695,326.395 353.788 C 323.713 359.149,314.974 365.947,307.915 368.163 C 302.043 370.007,302.380 370.000,220.283 370.000 L 142.408 370.000 143.104 369.155 C 143.487 368.691,144.025 368.074,144.300 367.784 C 144.575 367.494,144.800 367.064,144.800 366.829 C 144.800 366.593,144.980 366.400,145.200 366.400 C 145.420 366.400,145.600 366.207,145.600 365.972 C 145.600 365.737,146.107 364.792,146.728 363.872 C 151.727 356.459,154.000 346.279,154.000 331.296 C 154.000 325.968,154.141 323.619,154.480 323.280 C 154.832 322.928,158.143 322.800,166.884 322.800 C 181.717 322.800,183.775 322.095,185.175 316.533 C 185.864 313.797,183.836 308.438,182.100 308.409 C 181.825 308.404,181.599 308.265,181.597 308.100 C 181.582 306.651,153.968 306.057,150.049 307.421 C 144.485 309.359,141.063 312.757,138.387 319.000 C 138.035 319.821,137.778 323.804,137.575 331.600 C 137.035 352.290,132.313 361.565,118.829 368.417 L 116.312 369.696 113.147 369.061 C 105.564 367.540,96.315 361.721,92.387 356.000 C 91.859 355.230,91.186 354.353,90.893 354.052 C 90.163 353.300,87.152 347.278,86.768 345.800 C 86.596 345.140,86.133 343.610,85.739 342.400 C 85.058 340.308,85.012 333.336,84.800 200.600 L 84.577 61.000 83.341 55.600 C 82.193 50.584,80.352 44.925,79.061 42.449 C 77.532 39.515,76.580 37.780,76.400 37.600 C 76.290 37.490,76.003 37.040,75.762 36.600 C 74.677 34.615,74.184 33.786,73.981 33.600 C 73.860 33.490,73.326 32.770,72.794 32.000 C 72.262 31.230,71.563 30.330,71.242 30.000 C 70.465 29.203,245.475 28.831,251.200 29.617 C 258.736 30.653,265.268 33.938,269.457 38.800 C 269.931 39.350,270.780 40.332,271.343 40.983 C 272.453 42.263,275.609 48.281,275.603 49.105 C 275.601 49.383,275.759 49.923,275.953 50.305 C 277.021 52.410,277.200 55.532,277.200 72.111 L 277.200 89.411 275.600 90.400 C 274.720 90.944,274.000 91.526,274.000 91.694 C 274.000 91.862,273.745 92.000,273.433 92.000 C 273.122 92.000,272.807 92.145,272.733 92.323 C 272.660 92.501,271.704 93.258,270.609 94.005 C 269.514 94.752,268.344 95.585,268.009 95.855 C 267.674 96.126,265.582 97.754,263.359 99.474 C 259.989 102.081,256.304 105.122,254.239 107.000 C 253.997 107.220,252.449 108.569,250.799 109.998 C 238.176 120.930,232.259 128.788,228.809 139.200 C 228.335 140.630,227.792 142.160,227.601 142.600 C 227.410 143.040,227.145 144.030,227.012 144.800 C 226.879 145.570,226.588 147.100,226.367 148.200 C 225.891 150.560,225.413 153.470,224.823 157.600 C 224.587 159.250,224.221 161.770,224.010 163.200 C 223.654 165.612,223.454 167.009,222.416 174.300 C 222.204 175.785,221.837 178.260,221.600 179.800 C 221.363 181.340,221.014 183.770,220.824 185.200 C 220.635 186.630,220.182 189.753,219.817 192.140 L 219.155 196.481 214.639 202.540 C 209.726 209.131,202.935 219.184,200.816 223.000 C 200.083 224.320,199.104 226.030,198.642 226.800 C 193.008 236.172,202.414 245.331,210.300 238.154 C 211.235 237.303,212.000 236.495,212.000 236.358 C 212.000 235.898,216.888 227.829,219.554 223.889 C 221.009 221.738,222.380 219.682,222.600 219.321 C 222.820 218.959,223.215 218.379,223.478 218.032 C 223.740 217.684,224.815 216.230,225.865 214.800 C 226.916 213.370,227.880 212.110,228.007 212.000 C 228.134 211.890,228.677 211.170,229.214 210.400 C 232.740 205.337,231.934 205.687,241.122 205.216 C 245.589 204.987,251.979 204.782,255.322 204.760 C 258.665 204.738,261.850 204.577,262.400 204.401 C 262.950 204.226,260.610 204.172,257.200 204.281 C 253.790 204.391,246.866 204.597,241.814 204.740 L 232.627 205.000 228.707 210.200 C 224.087 216.327,217.822 225.292,215.987 228.400 C 214.151 231.510,213.202 233.168,212.238 234.951 C 207.392 243.914,194.603 239.649,197.727 230.110 C 198.931 226.432,207.679 212.662,215.147 202.689 C 219.938 196.291,219.722 196.804,220.788 189.300 C 221.782 182.304,222.061 180.486,222.419 178.669 C 222.629 177.608,222.800 176.136,222.800 175.400 C 222.800 174.664,222.971 173.192,223.181 172.131 C 223.561 170.201,223.983 167.422,224.811 161.400 C 228.326 135.818,233.358 125.491,248.600 112.573 C 250.140 111.268,251.670 109.930,252.001 109.600 C 252.331 109.270,253.771 108.015,255.201 106.810 C 256.630 105.606,257.890 104.514,258.000 104.382 C 258.735 103.506,270.882 94.280,275.757 90.895 L 277.637 89.590 277.511 71.095 C 277.371 50.423,277.477 51.287,274.323 45.030 C 271.497 39.424,267.203 35.071,261.687 32.217 C 258.705 30.674,257.728 30.348,253.200 29.383 C 250.505 28.809,70.859 28.474,70.291 29.042 M46.257 30.032 C 59.131 37.263,67.473 50.789,68.069 65.400 L 68.200 68.600 42.732 68.703 C 19.972 68.795,17.196 68.739,16.632 68.174 C 15.306 66.849,15.868 52.775,17.470 47.200 C 19.419 40.412,26.184 33.274,32.641 31.192 C 33.498 30.915,34.560 30.551,35.000 30.383 C 38.210 29.154,44.352 28.962,46.257 30.032 M358.600 71.238 C 352.141 72.432,342.365 74.850,339.400 75.988 C 338.960 76.157,337.340 76.688,335.800 77.168 C 334.260 77.648,332.640 78.195,332.200 78.382 C 331.760 78.570,329.870 79.301,328.000 80.007 C 326.130 80.713,323.700 81.702,322.600 82.206 C 321.500 82.709,319.335 83.668,317.789 84.336 C 312.435 86.650,300.304 93.116,296.528 95.669 C 295.608 96.291,294.736 96.800,294.590 96.800 C 292.743 96.800,271.885 112.528,259.600 123.184 C 247.925 133.310,243.026 141.676,241.201 154.600 C 241.014 155.920,240.395 160.330,239.823 164.400 C 239.252 168.470,238.695 172.205,238.585 172.700 C 238.168 174.574,239.633 173.283,251.759 161.090 C 258.601 154.209,266.450 146.608,269.200 144.197 C 271.950 141.787,274.577 139.451,275.037 139.007 C 275.497 138.563,279.187 135.411,283.237 132.002 C 291.573 124.985,290.639 125.753,295.400 122.000 C 297.380 120.439,299.337 118.884,299.748 118.544 C 300.656 117.793,313.606 108.073,318.600 104.394 C 320.580 102.935,324.146 100.405,326.525 98.771 C 328.904 97.137,331.784 95.112,332.925 94.270 C 335.748 92.189,337.299 91.600,339.949 91.601 C 347.005 91.606,349.630 99.816,344.202 104.900 C 343.321 105.725,342.809 106.400,343.063 106.400 C 345.737 106.400,348.491 99.742,347.221 96.348 C 344.520 89.128,336.590 89.496,327.867 97.245 C 327.610 97.473,325.145 99.221,322.388 101.130 C 317.563 104.471,314.420 106.751,314.000 107.217 C 313.890 107.339,313.170 107.874,312.400 108.406 C 311.630 108.938,310.768 109.598,310.485 109.873 C 310.202 110.147,309.437 110.687,308.785 111.072 C 308.133 111.457,307.600 111.914,307.600 112.086 C 307.600 112.259,307.422 112.400,307.205 112.400 C 306.987 112.400,306.492 112.659,306.105 112.976 C 305.717 113.293,302.070 116.178,298.000 119.388 C 291.418 124.580,288.532 126.904,287.057 128.202 C 286.805 128.423,285.610 129.410,284.400 130.396 C 283.190 131.382,282.110 132.283,282.000 132.397 C 281.890 132.511,280.630 133.594,279.200 134.802 C 277.770 136.011,276.403 137.180,276.161 137.400 C 275.920 137.620,274.502 138.880,273.009 140.200 C 264.075 148.100,259.904 152.073,248.874 163.194 L 239.147 173.000 239.383 171.000 C 239.611 169.072,239.999 166.298,240.810 160.800 C 241.021 159.370,241.372 156.940,241.589 155.400 C 242.572 148.435,243.870 144.147,246.473 139.263 C 250.000 132.645,254.129 128.239,266.200 118.214 C 268.840 116.021,271.241 113.994,271.535 113.708 C 271.829 113.422,272.729 112.697,273.535 112.096 C 274.341 111.496,275.090 110.905,275.200 110.783 C 275.310 110.661,276.030 110.123,276.800 109.586 C 277.570 109.050,278.470 108.384,278.800 108.107 C 280.369 106.788,294.482 97.313,297.400 95.620 C 298.280 95.109,299.585 94.356,300.300 93.946 C 301.015 93.536,302.275 92.812,303.100 92.337 C 309.626 88.584,320.631 83.372,327.600 80.732 C 329.910 79.857,332.160 78.984,332.600 78.791 C 333.040 78.599,334.660 78.051,336.200 77.574 C 337.740 77.098,339.313 76.549,339.695 76.354 C 340.077 76.159,340.741 76.000,341.171 76.000 C 341.601 76.000,342.052 75.840,342.173 75.644 C 342.294 75.449,342.979 75.192,343.696 75.073 C 344.906 74.873,346.024 74.613,350.200 73.560 C 361.488 70.713,368.508 70.235,371.976 72.077 C 373.694 72.990,381.279 80.737,381.529 81.834 C 381.601 82.149,374.139 89.989,364.729 99.482 C 355.418 108.876,340.317 124.131,331.171 133.381 C 284.798 180.285,286.460 178.734,278.200 182.808 C 269.902 186.901,263.823 188.345,253.413 188.695 L 247.025 188.911 249.200 186.355 C 252.886 182.025,275.483 159.709,282.017 153.947 C 287.838 148.812,293.007 144.336,295.145 142.577 C 295.664 142.150,296.294 141.614,296.545 141.387 C 297.893 140.163,311.973 128.970,315.397 126.400 C 317.595 124.750,319.665 123.184,319.997 122.920 C 321.753 121.525,331.004 114.830,333.600 113.075 C 335.250 111.960,336.805 110.844,337.056 110.596 C 337.307 110.348,338.610 109.437,339.953 108.572 C 341.295 107.708,342.395 106.843,342.397 106.651 C 342.398 106.459,342.055 106.549,341.633 106.851 C 341.211 107.153,338.916 108.738,336.533 110.374 C 334.150 112.009,332.110 113.449,332.000 113.574 C 331.890 113.698,330.630 114.607,329.200 115.593 C 327.770 116.579,326.330 117.601,326.000 117.864 C 325.670 118.126,322.070 120.835,318.000 123.884 C 313.930 126.932,310.240 129.724,309.800 130.087 C 309.360 130.451,306.480 132.766,303.400 135.232 C 298.586 139.087,293.469 143.318,292.800 143.998 C 292.690 144.110,290.980 145.551,289.000 147.201 C 287.020 148.850,285.205 150.380,284.967 150.600 C 284.729 150.820,282.749 152.619,280.567 154.597 C 267.505 166.442,245.984 188.251,246.676 188.942 C 247.186 189.453,258.603 189.184,261.800 188.586 C 263.560 188.256,265.630 187.885,266.400 187.762 C 267.170 187.638,268.160 187.396,268.600 187.224 C 269.040 187.052,270.120 186.694,271.000 186.429 C 272.906 185.855,273.125 185.763,278.000 183.486 C 286.245 179.635,284.570 181.195,332.600 132.639 C 374.242 90.541,381.605 83.047,381.992 82.372 C 382.268 81.890,381.425 80.711,378.364 77.297 C 372.002 70.202,369.070 69.304,358.600 71.238 M123.200 94.798 C 122.870 95.012,122.282 95.191,121.894 95.194 C 115.824 95.247,114.528 105.699,120.099 109.672 L 121.400 110.600 166.567 110.600 C 202.344 110.600,211.768 110.496,211.900 110.100 C 211.992 109.825,212.266 109.600,212.510 109.600 C 212.754 109.600,213.615 108.891,214.423 108.024 C 218.510 103.641,216.533 96.913,210.600 95.016 C 208.949 94.488,124.003 94.276,123.200 94.798 M212.451 96.354 C 217.048 99.504,217.038 106.112,212.431 109.231 L 211.000 110.200 166.400 110.200 L 121.800 110.200 120.369 109.231 C 114.970 105.576,116.111 97.063,122.200 95.568 C 122.860 95.406,143.123 95.302,167.229 95.337 L 211.059 95.400 212.451 96.354 M122.213 149.089 C 113.991 150.340,114.693 163.063,123.076 164.747 C 126.401 165.414,184.625 165.347,187.514 164.672 C 194.866 162.954,196.313 154.405,190.000 149.981 L 188.600 149.000 156.000 148.954 C 138.070 148.929,122.866 148.990,122.213 149.089 M190.030 150.600 C 194.508 153.763,194.538 159.718,190.093 163.109 L 188.662 164.200 155.231 164.200 L 121.800 164.200 120.354 163.221 C 115.987 160.266,115.684 153.872,119.764 150.800 C 121.783 149.280,122.517 149.250,155.866 149.326 L 188.332 149.400 190.030 150.600 M275.200 201.149 C 274.870 201.327,272.890 201.851,270.800 202.314 C 264.041 203.809,263.668 203.912,264.894 203.959 C 266.146 204.006,268.321 203.541,273.279 202.165 C 275.192 201.634,276.857 201.200,276.979 201.200 C 277.100 201.200,277.200 224.960,277.200 254.000 L 277.200 306.800 257.335 306.800 L 237.470 306.800 235.746 307.811 C 230.295 311.005,230.507 318.902,236.121 321.742 L 238.211 322.800 284.297 322.800 L 330.382 322.800 331.053 323.825 C 331.647 324.732,331.701 325.837,331.517 333.325 C 331.402 337.986,331.451 340.990,331.625 340.000 C 332.318 336.052,332.066 323.784,331.278 323.070 C 330.619 322.474,326.443 322.407,284.178 322.308 L 237.800 322.200 236.080 321.215 C 231.095 318.361,231.001 311.378,235.907 308.328 L 237.400 307.400 257.400 307.200 L 277.400 307.000 277.501 253.900 L 277.603 200.800 276.701 200.812 C 276.206 200.819,275.530 200.970,275.200 201.149 M120.794 205.316 C 113.854 208.986,115.731 220.561,123.235 220.364 C 124.580 220.329,124.573 220.321,122.798 219.831 C 115.636 217.852,114.542 209.227,121.021 205.828 C 123.006 204.787,170.134 204.303,173.600 205.288 C 181.236 207.459,180.818 217.610,173.000 219.861 L 171.400 220.321 172.726 220.361 C 178.699 220.538,181.753 211.539,177.284 206.934 C 174.792 204.367,175.183 204.400,147.517 204.400 L 122.526 204.400 120.794 205.316 M121.800 260.556 C 115.300 263.052,114.338 271.140,120.077 275.031 L 121.800 276.200 166.400 276.200 L 211.000 276.200 212.723 275.031 C 218.401 271.182,217.397 262.757,211.000 260.561 C 208.853 259.824,123.719 259.820,121.800 260.556 M210.069 260.891 C 216.784 262.438,218.159 271.129,212.239 274.598 L 210.530 275.600 166.449 275.600 C 123.226 275.600,122.338 275.585,120.807 274.804 C 114.923 271.802,115.837 262.703,122.200 260.944 C 124.614 260.276,207.186 260.227,210.069 260.891 M204.133 308.017 C 196.040 313.751,202.878 326.152,211.816 321.950 C 216.616 319.694,217.970 314.560,214.963 310.016 C 212.720 306.626,207.465 305.656,204.133 308.017 M211.871 308.034 C 215.947 310.008,217.182 314.858,214.665 319.013 C 212.431 322.700,206.566 323.220,203.270 320.022 C 197.199 314.130,204.228 304.334,211.871 308.034 " stroke="none" fill="#9f8e5c" fill-rule="evenodd"></path></g></svg>